<svg width="57" height="56" viewBox="0 0 57 56" fill="none" xmlns="http://www.w3.org/2000/svg">
<g clip-path="url(#clip0_2343_4632)">
<path d="M17.0909 15H6.90909C5.85476 15 5 15.8548 5 16.9091V27.0909C5 28.1452 5.85476 29 6.90909 29H17.0909C18.1453 29 19 28.1452 19 27.0909V16.9091C19 15.8548 18.1453 15 17.0909 15Z" fill="#EF7E30"/>
<path d="M11.2188 35.0312C8.89253 35.0312 7 36.9238 7 39.25C7 41.5762 8.89253 43.4688 11.2188 43.4688C13.545 43.4688 15.4375 41.5762 15.4375 39.25C15.4375 36.9238 13.545 35.0312 11.2188 35.0312Z" fill="#EF7E30"/>
<path d="M45 15C41.1402 15 38 18.1402 38 22C38 25.8598 41.1402 29 45 29C48.8598 29 52 25.8598 52 22C52 18.1402 48.8598 15 45 15Z" fill="#FEB671"/>
<path d="M47.6316 38.0358L44.2772 34.3994C43.7859 33.8669 42.9895 33.8669 42.4982 34.3994C42.007 34.932 42.007 35.7953 42.4982 36.3279L43.7053 37.6363H15C15.0829 38.077 15.1265 38.533 15.1265 39C15.1265 39.4669 15.0829 39.9229 15 40.3636H43.7053L42.4982 41.6721C42.007 42.2047 42.007 43.068 42.4982 43.6006C42.9895 44.1331 43.7859 44.1331 44.2772 43.6006L47.6316 39.9642C48.1228 39.4317 48.1228 38.5682 47.6316 38.0358Z" fill="#FEB671"/>
</g>
<defs>
<clipPath id="clip0_2343_4632">
<rect width="48" height="48" fill="white" transform="translate(4 4)"/>
</clipPath>
</defs>
</svg>
