<svg width="20" height="20" viewBox="0 0 20 20" fill="none" xmlns="http://www.w3.org/2000/svg">
<path d="M9.9999 3.16406C8.60327 3.16406 7.26384 3.71887 6.27627 4.70644C5.2887 5.69401 4.73389 7.03344 4.73389 8.43008C4.73389 10.7637 8.12334 15.002 9.46357 16.5871C9.52958 16.665 9.61174 16.7275 9.70436 16.7704C9.79698 16.8133 9.89783 16.8356 9.9999 16.8356C10.102 16.8356 10.2028 16.8133 10.2954 16.7704C10.3881 16.7275 10.4702 16.665 10.5362 16.5871C11.8749 15.002 15.2659 10.7637 15.2659 8.43008C15.2659 7.73853 15.1297 7.05376 14.8651 6.41486C14.6004 5.77596 14.2125 5.19544 13.7235 4.70644C13.2345 4.21745 12.654 3.82956 12.0151 3.56491C11.3762 3.30027 10.6914 3.16406 9.9999 3.16406ZM9.9999 10.1855C9.6527 10.1855 9.3133 10.0826 9.02461 9.8897C8.73593 9.6968 8.51093 9.42264 8.37806 9.10187C8.24519 8.7811 8.21043 8.42813 8.27816 8.0876C8.3459 7.74708 8.51309 7.43428 8.7586 7.18877C9.0041 6.94327 9.3169 6.77607 9.65743 6.70834C9.99795 6.6406 10.3509 6.67537 10.6717 6.80824C10.9925 6.9411 11.2666 7.16611 11.4595 7.45479C11.6524 7.74348 11.7554 8.08288 11.7554 8.43008C11.7554 8.89566 11.5704 9.34217 11.2412 9.67138C10.912 10.0006 10.4655 10.1855 9.9999 10.1855Z" fill="#D4D4D4"/>
</svg>
