<svg width="56" height="56" viewBox="0 0 56 56" fill="none" xmlns="http://www.w3.org/2000/svg">
<g clip-path="url(#clip0_2343_4620)">
<path d="M33.1562 22.8438C34.0365 22.8438 34.75 22.1302 34.75 21.25C34.75 20.3698 34.0365 19.6562 33.1562 19.6562C32.276 19.6562 31.5625 20.3698 31.5625 21.25C31.5625 22.1302 32.276 22.8438 33.1562 22.8438Z" fill="#FEB671"/>
<path d="M42.1562 36.3438C43.0365 36.3438 43.75 35.6302 43.75 34.75C43.75 33.8698 43.0365 33.1562 42.1562 33.1562C41.276 33.1562 40.5625 33.8698 40.5625 34.75C40.5625 35.6302 41.276 36.3438 42.1562 36.3438Z" fill="#FEB671"/>
<path d="M50.5937 4H24.2344C23.4578 4 22.8281 4.62962 22.8281 5.40625V52H50.5937C51.3703 52 52 51.3704 52 50.5938V5.40625C52 4.62962 51.3703 4 50.5937 4ZM34.5624 25.4248V43.75C34.5624 44.5266 33.9328 45.1562 33.1562 45.1562C32.3796 45.1562 31.7499 44.5266 31.7499 43.75V25.4248C30.0081 24.8365 28.7499 23.188 28.7499 21.25C28.7499 19.312 30.0081 17.6635 31.7499 17.0752V12.25C31.7499 11.4734 32.3796 10.8438 33.1562 10.8438C33.9328 10.8438 34.5624 11.4734 34.5624 12.25V17.0752C36.3043 17.6635 37.5624 19.312 37.5624 21.25C37.5624 23.188 36.3043 24.8365 34.5624 25.4248ZM43.5624 38.9248V43.75C43.5624 44.5266 42.9328 45.1562 42.1562 45.1562C41.3796 45.1562 40.7499 44.5266 40.7499 43.75V38.9248C39.0081 38.3365 37.7499 36.688 37.7499 34.75C37.7499 32.812 39.0081 31.1635 40.7499 30.5752V12.25C40.7499 11.4734 41.3796 10.8438 42.1562 10.8438C42.9328 10.8438 43.5624 11.4734 43.5624 12.25V30.5752C45.3043 31.1635 46.5624 32.812 46.5624 34.75C46.5624 36.688 45.3043 38.3365 43.5624 38.9248Z" fill="#FEB671"/>
<path d="M15.3629 21.7013V24.0936C15.2066 24.1549 15.0516 24.2193 14.898 24.2867L13.2059 22.5946C12.7331 22.1218 11.9927 22.0473 11.4353 22.4164C10.4514 23.0675 9.52806 23.8222 8.69059 24.6596C7.85219 25.4981 7.09741 26.4216 6.44734 27.4044C6.07862 27.9619 6.15325 28.7019 6.62584 29.1746L8.31784 30.8666C8.25044 31.0204 8.18603 31.1754 8.12472 31.3318H5.7325C5.06406 31.3318 4.48797 31.8024 4.35456 32.4574C4.11934 33.6122 4 34.7989 4 35.9845C4 37.1701 4.11934 38.3568 4.35456 39.5117C4.48797 40.1666 5.06406 40.6372 5.7325 40.6372H8.12472C8.18603 40.7936 8.25044 40.9488 8.31775 41.1024L6.62612 42.7941C6.15353 43.2667 6.07881 44.0068 6.44753 44.5642C7.09769 45.5472 7.85247 46.4707 8.69106 47.3093C9.52928 48.1474 10.4527 48.9021 11.4358 49.5525C11.9933 49.9213 12.7334 49.8468 13.2061 49.3741L14.8978 47.6824C15.0515 47.7499 15.2066 47.8142 15.363 47.8755V50.2674C15.363 50.9359 15.8336 51.5119 16.4886 51.6454C17.6446 51.8808 18.8313 52.0001 20.0157 52.0001V39.448C18.1058 39.448 16.5521 37.8943 16.5521 35.9845C16.5521 34.0746 18.1059 32.5209 20.0157 32.5209V19.9723C18.8292 19.9723 17.6435 20.0879 16.4884 20.3233C15.8334 20.4568 15.3629 21.0329 15.3629 21.7013Z" fill="#EF7E30"/>
</g>
<defs>
<clipPath id="clip0_2343_4620">
<rect width="48" height="48" fill="white" transform="translate(4 4)"/>
</clipPath>
</defs>
</svg>
