<svg width="24" height="18" viewBox="0 0 24 18" fill="none" xmlns="http://www.w3.org/2000/svg">
<path d="M23.7885 1.76807L16.5098 8.99989L23.7885 16.2317C23.92 15.9567 23.9999 15.6527 23.9999 15.328V2.67177C23.9999 2.34707 23.92 2.04308 23.7885 1.76807Z" fill="white"/>
<path d="M21.8905 0.5625H2.10927C1.78457 0.5625 1.48058 0.642328 1.20557 0.773907L10.5085 10.03C11.3311 10.8526 12.6687 10.8526 13.4913 10.03L22.7942 0.773907C22.5192 0.642328 22.2152 0.5625 21.8905 0.5625Z" fill="white"/>
<path d="M0.211406 1.76807C0.0798281 2.04308 0 2.34707 0 2.67177V15.328C0 15.6527 0.0798281 15.9567 0.211406 16.2317L7.49011 8.99989L0.211406 1.76807Z" fill="white"/>
<path d="M15.5155 9.99438L14.4855 11.0244C13.115 12.3949 10.8848 12.3949 9.5142 11.0244L8.48427 9.99438L1.20557 17.2262C1.48058 17.3578 1.78457 17.4376 2.10927 17.4376H21.8905C22.2152 17.4376 22.5192 17.3578 22.7942 17.2262L15.5155 9.99438Z" fill="white"/>
</svg>
