<svg width="40" height="40" viewBox="0 0 40 40" fill="none" xmlns="http://www.w3.org/2000/svg">
<g clip-path="url(#clip0_2343_4407)">
<path d="M28.9955 29.0002V28.9994H29V22.3979C29 19.1684 28.3047 16.6807 24.5292 16.6807C22.7142 16.6807 21.4962 17.6767 20.999 18.6209H20.9465V16.9822H17.3667V28.9994H21.0942V23.0489C21.0942 21.4822 21.3912 19.9672 23.3315 19.9672C25.2432 19.9672 25.2717 21.7552 25.2717 23.1494V29.0002H28.9955Z" fill="#737274"/>
<path d="M11.2969 16.9829H15.0289V29.0002H11.2969V16.9829Z" fill="#737274"/>
<path d="M13.1615 11C11.9683 11 11 11.9683 11 13.1615C11 14.3548 11.9683 15.3433 13.1615 15.3433C14.3547 15.3433 15.323 14.3548 15.323 13.1615C15.3222 11.9683 14.354 11 13.1615 11V11Z" fill="#737274"/>
</g>
<rect x="0.5" y="0.5" width="39" height="39" rx="19.5" stroke="#747476"/>
<defs>
<clipPath id="clip0_2343_4407">
<rect width="18" height="18" fill="white" transform="translate(11 11)"/>
</clipPath>
</defs>
</svg>
