<svg width="143" height="31" viewBox="0 0 143 31" fill="none" xmlns="http://www.w3.org/2000/svg">
<path d="M29.5949 9.05493C28.8652 9.30595 28.1566 9.51414 27.4602 9.68783L28.6114 11.0357L28.8485 11.3181H28.4786H26.386C26.1762 12.0434 25.0476 16.0418 24.5055 18.2565C24.0173 20.2476 22.1198 20.5197 21.5068 20.5574C20.9401 21.8037 20.2771 22.9383 19.5518 23.9518C21.132 25.0471 22.6925 26.4822 24.1744 28.3496C28.2942 25.5638 30.9998 20.8488 30.9998 15.4997C30.9998 13.1989 30.495 11.0191 29.5949 9.05493Z" fill="#B8182C"/>
<path d="M19.0519 24.6248C16.3628 28.0811 13.1738 30 12.0483 30.6115C13.1603 30.8641 14.3115 31.0001 15.5003 31.0001C18.4007 31.0001 21.1155 30.1991 23.4373 28.8155C22.0205 27.0433 20.5397 25.6717 19.0519 24.6248Z" fill="#B8182C"/>
<path d="M8.07548 21.5779C7.4759 21.6187 6.90763 21.6897 6.37427 21.7742L5.70648 24.2792L5.6236 24.5873L5.41501 24.3502C4.82296 23.6959 4.34868 22.9952 3.96799 22.3198C2.89848 22.6355 2.18389 22.9543 1.96777 23.0539C3.89859 26.5058 7.10393 29.1405 10.9517 30.3203C9.46223 27.2974 8.50455 24.3803 8.07548 21.5779Z" fill="#B8182C"/>
<path d="M3.56818 21.5697C2.86708 20.127 2.60892 18.9548 2.59385 18.8806L2.58473 18.8382L2.59821 18.8005C2.59821 18.8005 4.08172 13.1401 4.08172 13.1354C4.73286 10.8802 6.80406 11.0055 6.81159 11.0099H9.2258C9.83887 9.50851 10.6018 8.16975 11.439 6.99913C8.74677 5.01874 7.34178 2.85078 7.10781 2.47168C2.83535 5.23169 0 10.0339 0 15.4996C0 17.9349 0.561916 20.2388 1.56361 22.2918C1.72223 22.2192 2.44277 21.902 3.56818 21.5697Z" fill="#B8182C"/>
<path d="M11.9109 6.3615C14.5365 2.96384 17.6637 1.03778 18.8676 0.37157C17.7843 0.132845 16.6588 0 15.4989 0C12.7147 0 10.1058 0.737192 7.84546 2.02599C8.05722 2.38368 9.3595 4.47312 11.9109 6.3615Z" fill="#B8182C"/>
<path d="M20.5398 20.5688C19.801 20.5688 18.6224 20.5661 17.4094 20.5264C16.2614 20.4931 15.4956 20.3242 14.7628 19.8574L14.3325 21.4496C15.8037 21.8743 17.313 22.5238 18.8175 23.4665C19.4516 22.5948 20.0302 21.6189 20.5398 20.5688Z" fill="#B8182C"/>
<path d="M18.3149 24.1426C16.9024 23.2499 15.4915 22.638 14.1198 22.2332L12.1362 29.5583C13.4671 28.7668 16.0669 26.9858 18.3149 24.1426Z" fill="#B8182C"/>
<path d="M13.2863 22.0071C11.7513 21.6371 10.2844 21.5161 8.94287 21.5403C9.32515 23.9831 10.1305 26.527 11.3527 29.1557L13.2863 22.0071Z" fill="#B8182C"/>
<path d="M10.1526 11.0102H10.8279C13.2735 11.0102 13.9278 11.4813 15.5909 13.4863L16.635 9.63102C14.8962 9.09329 13.4126 8.3331 12.1603 7.50391C11.4105 8.54169 10.7189 9.70953 10.1526 11.0102Z" fill="#B8182C"/>
<path d="M12.6401 6.8661C13.8123 7.64572 15.2082 8.3496 16.846 8.84966L18.8688 1.37622C17.5332 2.17091 14.8957 3.98078 12.6401 6.8661Z" fill="#B8182C"/>
<path d="M17.6802 9.07481C18.8131 9.35874 20.0611 9.52489 21.407 9.55543L22.0157 9.16244C21.6199 6.79066 20.8359 4.33124 19.6514 1.78418L17.6802 9.07481Z" fill="#B8182C"/>
<path d="M20.2275 10.3221C19.2516 10.2345 18.3268 10.0806 17.4675 9.8645L16.2664 14.2999L19.8651 18.6355L21.7654 11.3179H19.2683H18.6897L19.1775 11.0066L20.2275 10.3221Z" fill="#B8182C"/>
<path d="M13.4948 21.2277L14.025 19.2818C13.6745 18.9511 13.3061 18.5478 12.8905 18.0386C11.8317 16.7423 10.2134 14.7242 9.27551 13.5488C8.67553 15.833 8.53079 18.2349 8.83256 20.7486C10.2772 20.7157 11.8527 20.841 13.4948 21.2277Z" fill="#B8182C"/>
<path d="M6.59985 20.928C7.0317 20.8693 7.48813 20.8193 7.96241 20.786C7.75858 19.0685 7.76612 17.3974 7.96994 15.7751L6.59985 20.928Z" fill="#B8182C"/>
<path d="M22.8044 8.65105L25.1095 7.15842L25.2337 7.07554L25.3348 7.18697L26.8377 8.95917C27.6066 8.77636 28.3938 8.54675 29.2111 8.27194C27.3108 4.67322 24.0384 1.9148 20.0852 0.692627C21.4267 3.43598 22.3329 6.0905 22.8044 8.65105Z" fill="#B8182C"/>
<path d="M138.538 25.1715C138.538 26.1878 139.362 27.0115 140.378 27.0115C141.395 27.0115 142.218 26.1878 142.218 25.1715C142.218 24.1551 141.395 23.3315 140.378 23.3315C139.362 23.3315 138.538 24.1551 138.538 25.1715ZM140.378 22.9702C141.597 22.9702 142.584 23.958 142.584 25.1762C142.584 26.3944 141.597 27.3823 140.378 27.3823C139.16 27.3823 138.172 26.3944 138.172 25.1762C138.172 23.958 139.16 22.9702 140.378 22.9702Z" fill="#B8182C"/>
<path d="M140.567 25.0188C140.555 25.0204 140.543 25.02 140.53 25.0212C140.523 25.0219 140.517 25.0235 140.511 25.0243C140.498 25.0251 140.484 25.0247 140.471 25.0255C140.438 25.0279 140.405 25.0327 140.372 25.0327H140.265H139.863V24.2467H140.265H140.372C140.405 24.2467 140.438 24.2514 140.471 24.2538C140.484 24.2546 140.498 24.2542 140.511 24.2554C140.517 24.2558 140.523 24.2574 140.53 24.2582C140.543 24.2598 140.555 24.259 140.567 24.261C140.574 24.2618 140.578 24.2653 140.585 24.2661C140.632 24.2744 140.677 24.2859 140.717 24.3034C140.721 24.3054 140.724 24.3082 140.728 24.3101C140.732 24.3121 140.738 24.3125 140.743 24.3145C140.793 24.3411 140.835 24.3787 140.867 24.4279C140.899 24.4767 140.915 24.5429 140.915 24.6254C140.915 24.6309 140.913 24.6345 140.913 24.6397C140.913 24.6448 140.915 24.6488 140.915 24.6539C140.915 24.7368 140.899 24.8027 140.867 24.8518C140.835 24.9006 140.793 24.9383 140.743 24.9648C140.738 24.9672 140.732 24.9672 140.728 24.9692C140.724 24.9712 140.721 24.9744 140.717 24.9763C140.677 24.9934 140.632 25.0049 140.585 25.0132C140.578 25.0144 140.574 25.0176 140.567 25.0188ZM140.702 25.3154C140.887 25.2968 140.988 25.2353 141.113 25.1318C141.237 25.0279 141.299 24.8649 141.299 24.6424C141.299 24.4049 141.229 24.228 141.087 24.1111C140.946 23.9945 140.728 23.9358 140.434 23.9358H139.479V26.4067H139.863V25.3436H140.272L140.945 26.4067H141.408L140.702 25.3154Z" fill="#B8182C"/>
<path d="M61.2 8.48242C57.3332 8.48242 54.1985 11.6168 54.1985 15.4836C54.1985 19.35 57.3332 22.4847 61.2 22.4847C65.0664 22.4847 68.2012 19.35 68.2012 15.4836C68.2012 11.6168 65.0664 8.48242 61.2 8.48242ZM65.5157 15.4836C65.5157 17.8672 63.5833 19.7993 61.2 19.7993C58.8163 19.7993 56.8839 17.8672 56.8839 15.4836C56.8839 13.0999 58.8163 11.1679 61.2 11.1679C63.5833 11.1679 65.5157 13.0999 65.5157 15.4836Z" fill="#B8182C"/>
<path d="M49.1568 21.7532C49.4217 22.1299 49.9416 22.3766 50.4726 22.3766C51.4184 22.3766 52.1845 21.6136 52.1933 20.6698L52.1948 9.76419C52.1948 9.19078 51.5964 8.59277 50.8589 8.59277C50.1209 8.59277 49.5225 9.19078 49.5225 9.92876V17.336L49.5201 17.3368C49.5205 17.3391 49.5225 17.3403 49.5225 17.3427C49.5225 17.3986 49.4777 17.4438 49.4217 17.4438C49.3864 17.4438 49.3603 17.4224 49.3424 17.3951L49.3397 17.3959L43.6432 9.33195L43.6412 9.33314C43.3303 8.88622 42.8144 8.59277 42.2287 8.59277C41.2833 8.59277 40.5171 9.35534 40.5084 10.2987L40.5068 21.0406C40.5068 21.7786 41.1048 22.3766 41.8428 22.3766C42.5804 22.3766 43.1788 21.7786 43.1788 21.0406V13.6195C43.1788 13.5636 43.224 13.5184 43.2795 13.5184C43.3144 13.5184 43.3402 13.539 43.3584 13.5655L49.1568 21.7532Z" fill="#B8182C"/>
<path d="M134.164 21.7532C134.429 22.1299 134.949 22.3766 135.48 22.3766C136.426 22.3766 137.192 21.6136 137.201 20.6698L137.202 9.76419C137.202 9.19078 136.604 8.59277 135.866 8.59277C135.128 8.59277 134.53 9.19078 134.53 9.92876V17.336L134.527 17.3368C134.527 17.3391 134.53 17.3403 134.53 17.3427C134.53 17.3986 134.485 17.4438 134.429 17.4438C134.394 17.4438 134.368 17.4224 134.35 17.3951L134.347 17.3959L128.65 9.33195L128.649 9.33314C128.338 8.88622 127.822 8.59277 127.236 8.59277C126.291 8.59277 125.524 9.35534 125.516 10.2987L125.514 21.0406C125.514 21.7786 126.112 22.3766 126.85 22.3766C127.588 22.3766 128.186 21.7786 128.186 21.0406V13.6195C128.186 13.5636 128.231 13.5184 128.287 13.5184C128.322 13.5184 128.348 13.539 128.366 13.5655L134.164 21.7532Z" fill="#B8182C"/>
<path d="M96.954 16.5652L96.9492 16.5644C96.9587 16.5006 96.969 16.4364 96.969 16.3697C96.969 15.6318 96.3706 15.0338 95.6331 15.0338H95.3594H91.3118H91.0386C90.3006 15.0338 89.7026 15.6318 89.7026 16.3697C89.7026 17.1077 90.3006 17.7057 91.0386 17.7057H91.3118H93.7304C92.8532 19.167 91.1532 20.0295 89.3659 19.7504C88.2671 19.579 87.33 19.0076 86.6805 18.2074C86.0742 17.4611 85.7185 16.5097 85.7196 15.4838C85.7196 14.4532 86.0892 13.4186 86.8344 12.593C88.4309 10.8232 91.1595 10.6828 92.9298 12.2793L92.9309 12.2781C93.4909 12.7627 94.3379 12.7012 94.8221 12.1409C95.3067 11.581 95.2885 10.77 94.7285 10.2854C91.8575 7.69554 87.4304 7.92316 84.8405 10.7942C83.6322 12.1338 83.037 13.8116 83.0374 15.4838C83.0358 17.1474 83.6124 18.6896 84.5958 19.8999H84.5962V19.9003C85.6498 21.1986 87.1694 22.1261 88.9519 22.4037C92.737 22.9942 96.287 20.432 96.9322 16.6695C96.9369 16.6497 96.9409 16.6299 96.9448 16.6101C96.9472 16.5946 96.9516 16.5803 96.954 16.5652Z" fill="#B8182C"/>
<path d="M72.8826 14.2286H72.8814C72.8802 14.227 72.8771 14.2179 72.8771 14.1909V11.306C72.8771 11.2707 72.883 11.2647 72.9187 11.2647H76.8937C77.9276 11.2647 78.3535 12.1685 78.3535 12.7026C78.3535 13.3173 77.8546 14.2325 76.8937 14.2325H72.9187C72.8929 14.2325 72.8826 14.2286 72.8826 14.2286ZM72.8771 16.7336C72.8771 16.6987 72.883 16.6928 72.9179 16.6928H75.8917C75.9452 16.6928 75.963 16.7059 75.99 16.7578L78.2234 21.5997C78.5323 22.2699 79.3258 22.5629 79.996 22.254C80.6661 21.9451 80.9592 21.1516 80.6503 20.4814L78.8047 16.481L78.8254 16.4675C80.3319 15.6946 81.0334 14.5082 81.0334 12.7332C81.0334 10.334 79.1949 8.59277 76.8695 8.59277H71.522C70.771 8.59277 70.2051 9.18959 70.2051 9.9815V21.0406C70.2051 21.7782 70.8031 22.3766 71.5411 22.3766C72.2791 22.3766 72.8771 21.7782 72.8771 21.0406V16.7336Z" fill="#B8182C"/>
<path d="M102.319 14.2286H102.318C102.317 14.227 102.313 14.2179 102.313 14.1909V11.306C102.313 11.2707 102.319 11.2647 102.355 11.2647H106.33C107.364 11.2647 107.79 12.1685 107.79 12.7026C107.79 13.3173 107.291 14.2325 106.33 14.2325H102.355C102.329 14.2325 102.319 14.2286 102.319 14.2286ZM102.313 16.7336C102.313 16.6987 102.319 16.6928 102.354 16.6928H105.328C105.381 16.6928 105.399 16.7059 105.426 16.7578L107.66 21.5997C107.969 22.2699 108.762 22.5629 109.432 22.254C110.102 21.9451 110.395 21.1516 110.087 20.4814L108.241 16.481L108.262 16.4675C109.768 15.6946 110.47 14.5082 110.47 12.7332C110.47 10.334 108.631 8.59277 106.306 8.59277H100.958C100.207 8.59277 99.6414 9.18959 99.6414 9.9815V21.0406C99.6414 21.7782 100.239 22.3766 100.977 22.3766C101.715 22.3766 102.313 21.7782 102.313 21.0406V16.7336Z" fill="#B8182C"/>
<path d="M121.506 16.7154C122.244 16.7154 122.842 16.1174 122.842 15.3794C122.842 14.6414 122.244 14.0434 121.506 14.0434H115.814V11.2647H121.506C122.244 11.2647 122.842 10.6667 122.842 9.92876C122.842 9.19078 122.244 8.59277 121.506 8.59277H114.478C113.924 8.59277 113.45 8.92905 113.247 9.40888C113.179 9.56869 113.142 9.74436 113.142 9.92876V21.0406C113.142 21.7786 113.74 22.3766 114.478 22.3766H121.506C122.244 22.3766 122.842 21.7786 122.842 21.0406C122.842 20.303 122.244 19.7046 121.506 19.7046H115.814V16.7154H121.506Z" fill="#B8182C"/>
<path d="M31.3614 25.1715C31.3614 26.1878 32.185 27.0115 33.2014 27.0115C34.2177 27.0115 35.0414 26.1878 35.0414 25.1715C35.0414 24.1551 34.2177 23.3315 33.2014 23.3315C32.185 23.3315 31.3614 24.1551 31.3614 25.1715ZM33.2014 22.9702C34.4196 22.9702 35.4074 23.958 35.4074 25.1762C35.4074 26.3944 34.4196 27.3823 33.2014 27.3823C31.9832 27.3823 30.9954 26.3944 30.9954 25.1762C30.9954 23.958 31.9832 22.9702 33.2014 22.9702Z" fill="#B8182C"/>
<path d="M33.3901 25.0188C33.3778 25.0204 33.366 25.02 33.3533 25.0212C33.3465 25.0219 33.3406 25.0235 33.3338 25.0243C33.3215 25.0251 33.3069 25.0247 33.2946 25.0255C33.2613 25.0279 33.228 25.0327 33.1954 25.0327H33.088H32.6863V24.2467H33.088H33.1954C33.228 24.2467 33.2613 24.2514 33.2946 24.2538C33.3069 24.2546 33.3215 24.2542 33.3338 24.2554C33.3406 24.2558 33.3465 24.2574 33.3533 24.2582C33.366 24.2598 33.3778 24.259 33.3901 24.261C33.3969 24.2618 33.4016 24.2653 33.408 24.2661C33.4552 24.2744 33.5004 24.2859 33.54 24.3034C33.5444 24.3054 33.5472 24.3082 33.5511 24.3101C33.5555 24.3121 33.5615 24.3125 33.5658 24.3145C33.6166 24.3411 33.6578 24.3787 33.6899 24.4279C33.7221 24.4767 33.7383 24.5429 33.7383 24.6254C33.7383 24.6309 33.7367 24.6345 33.7367 24.6397C33.7367 24.6448 33.7383 24.6488 33.7383 24.6539C33.7383 24.7368 33.7221 24.8027 33.6899 24.8518C33.6578 24.9006 33.6166 24.9383 33.5658 24.9648C33.5615 24.9672 33.5555 24.9672 33.5511 24.9692C33.5472 24.9712 33.5444 24.9744 33.54 24.9763C33.5004 24.9934 33.4552 25.0049 33.408 25.0132C33.4016 25.0144 33.3969 25.0176 33.3901 25.0188ZM33.525 25.3154C33.7098 25.2968 33.8117 25.2353 33.9358 25.1318C34.0603 25.0279 34.1226 24.8649 34.1226 24.6424C34.1226 24.4049 34.052 24.228 33.9104 24.1111C33.7692 23.9945 33.5515 23.9358 33.2573 23.9358H32.302V26.4067H32.6863V25.3436H33.0955L33.7685 26.4067H34.2316L33.525 25.3154Z" fill="#B8182C"/>
</svg>
