<svg width="220" height="60" viewBox="0 0 220 60" fill="none" xmlns="http://www.w3.org/2000/svg">
<path d="M68.5949 24.0549C67.8652 24.3059 67.1566 24.5141 66.4602 24.6878L67.6114 26.0357L67.8485 26.3181H67.4786H65.386C65.1762 27.0434 64.0476 31.0418 63.5055 33.2565C63.0173 35.2476 61.1198 35.5197 60.5068 35.5574C59.9401 36.8037 59.2771 37.9383 58.5518 38.9518C60.132 40.0471 61.6925 41.4822 63.1744 43.3496C67.2942 40.5638 69.9998 35.8488 69.9998 30.4997C69.9998 28.1989 69.495 26.0191 68.5949 24.0549Z" fill="#B8182C"/>
<path d="M58.0519 39.6248C55.3628 43.0811 52.1738 45 51.0483 45.6115C52.1603 45.8641 53.3115 46.0001 54.5003 46.0001C57.4007 46.0001 60.1155 45.1991 62.4373 43.8155C61.0205 42.0433 59.5397 40.6717 58.0519 39.6248Z" fill="#B8182C"/>
<path d="M47.0755 36.5779C46.4759 36.6187 45.9076 36.6897 45.3743 36.7742L44.7065 39.2792L44.6236 39.5873L44.415 39.3502C43.823 38.6959 43.3487 37.9952 42.968 37.3198C41.8985 37.6355 41.1839 37.9543 40.9678 38.0539C42.8986 41.5058 46.1039 44.1405 49.9517 45.3203C48.4622 42.2974 47.5046 39.3803 47.0755 36.5779Z" fill="#B8182C"/>
<path d="M42.5682 36.5697C41.8671 35.127 41.6089 33.9548 41.5939 33.8806L41.5847 33.8382L41.5982 33.8005C41.5982 33.8005 43.0817 28.1401 43.0817 28.1354C43.7329 25.8802 45.8041 26.0055 45.8116 26.0099H48.2258C48.8389 24.5085 49.6018 23.1698 50.439 21.9991C47.7468 20.0187 46.3418 17.8508 46.1078 17.4717C41.8354 20.2317 39 25.0339 39 30.4996C39 32.9349 39.5619 35.2388 40.5636 37.2918C40.7222 37.2192 41.4428 36.902 42.5682 36.5697Z" fill="#B8182C"/>
<path d="M50.9109 21.3615C53.5365 17.9638 56.6637 16.0378 57.8676 15.3716C56.7843 15.1328 55.6588 15 54.4989 15C51.7147 15 49.1058 15.7372 46.8455 17.026C47.0572 17.3837 48.3595 19.4731 50.9109 21.3615Z" fill="#B8182C"/>
<path d="M59.5398 35.5688C58.801 35.5688 57.6224 35.5661 56.4094 35.5264C55.2614 35.4931 54.4956 35.3242 53.7628 34.8574L53.3325 36.4496C54.8037 36.8743 56.313 37.5238 57.8175 38.4665C58.4516 37.5948 59.0302 36.6189 59.5398 35.5688Z" fill="#B8182C"/>
<path d="M57.3149 39.1426C55.9024 38.2499 54.4915 37.638 53.1198 37.2332L51.1362 44.5583C52.4671 43.7668 55.0669 41.9858 57.3149 39.1426Z" fill="#B8182C"/>
<path d="M52.2863 37.0071C50.7513 36.6371 49.2844 36.5161 47.9429 36.5403C48.3251 38.9831 49.1305 41.527 50.3527 44.1557L52.2863 37.0071Z" fill="#B8182C"/>
<path d="M49.1526 26.0102H49.8279C52.2735 26.0102 52.9278 26.4813 54.5909 28.4863L55.635 24.631C53.8962 24.0933 52.4126 23.3331 51.1603 22.5039C50.4105 23.5417 49.7189 24.7095 49.1526 26.0102Z" fill="#B8182C"/>
<path d="M51.6401 21.8661C52.8123 22.6457 54.2082 23.3496 55.846 23.8497L57.8688 16.3762C56.5332 17.1709 53.8957 18.9808 51.6401 21.8661Z" fill="#B8182C"/>
<path d="M56.6802 24.0748C57.8131 24.3587 59.0611 24.5249 60.407 24.5554L61.0157 24.1624C60.6199 21.7907 59.8359 19.3312 58.6514 16.7842L56.6802 24.0748Z" fill="#B8182C"/>
<path d="M59.2275 25.3221C58.2516 25.2345 57.3268 25.0806 56.4675 24.8645L55.2664 29.2999L58.8651 33.6355L60.7654 26.3179H58.2683H57.6897L58.1775 26.0066L59.2275 25.3221Z" fill="#B8182C"/>
<path d="M52.4948 36.2277L53.025 34.2818C52.6745 33.9511 52.3061 33.5478 51.8905 33.0386C50.8317 31.7423 49.2134 29.7242 48.2755 28.5488C47.6755 30.833 47.5308 33.2349 47.8326 35.7486C49.2772 35.7157 50.8527 35.841 52.4948 36.2277Z" fill="#B8182C"/>
<path d="M45.5999 35.928C46.0317 35.8693 46.4881 35.8193 46.9624 35.786C46.7586 34.0685 46.7661 32.3974 46.9699 30.7751L45.5999 35.928Z" fill="#B8182C"/>
<path d="M61.8044 23.651L64.1095 22.1584L64.2337 22.0755L64.3348 22.187L65.8377 23.9592C66.6066 23.7764 67.3938 23.5468 68.2111 23.2719C66.3108 19.6732 63.0384 16.9148 59.0852 15.6926C60.4267 18.436 61.3329 21.0905 61.8044 23.651Z" fill="#B8182C"/>
<path d="M177.538 40.1715C177.538 41.1878 178.362 42.0115 179.378 42.0115C180.395 42.0115 181.218 41.1878 181.218 40.1715C181.218 39.1551 180.395 38.3315 179.378 38.3315C178.362 38.3315 177.538 39.1551 177.538 40.1715ZM179.378 37.9702C180.597 37.9702 181.584 38.958 181.584 40.1762C181.584 41.3944 180.597 42.3823 179.378 42.3823C178.16 42.3823 177.172 41.3944 177.172 40.1762C177.172 38.958 178.16 37.9702 179.378 37.9702Z" fill="#B8182C"/>
<path d="M179.567 40.0188C179.555 40.0204 179.543 40.02 179.53 40.0212C179.523 40.0219 179.517 40.0235 179.511 40.0243C179.498 40.0251 179.484 40.0247 179.471 40.0255C179.438 40.0279 179.405 40.0327 179.372 40.0327H179.265H178.863V39.2467H179.265H179.372C179.405 39.2467 179.438 39.2514 179.471 39.2538C179.484 39.2546 179.498 39.2542 179.511 39.2554C179.517 39.2558 179.523 39.2574 179.53 39.2582C179.543 39.2598 179.555 39.259 179.567 39.261C179.574 39.2618 179.578 39.2653 179.585 39.2661C179.632 39.2744 179.677 39.2859 179.717 39.3034C179.721 39.3054 179.724 39.3082 179.728 39.3101C179.732 39.3121 179.738 39.3125 179.743 39.3145C179.793 39.3411 179.835 39.3787 179.867 39.4279C179.899 39.4767 179.915 39.5429 179.915 39.6254C179.915 39.6309 179.913 39.6345 179.913 39.6397C179.913 39.6448 179.915 39.6488 179.915 39.6539C179.915 39.7368 179.899 39.8027 179.867 39.8518C179.835 39.9006 179.793 39.9383 179.743 39.9648C179.738 39.9672 179.732 39.9672 179.728 39.9692C179.724 39.9712 179.721 39.9744 179.717 39.9763C179.677 39.9934 179.632 40.0049 179.585 40.0132C179.578 40.0144 179.574 40.0176 179.567 40.0188ZM179.702 40.3154C179.887 40.2968 179.988 40.2353 180.113 40.1318C180.237 40.0279 180.299 39.8649 180.299 39.6424C180.299 39.4049 180.229 39.228 180.087 39.1111C179.946 38.9945 179.728 38.9358 179.434 38.9358H178.479V41.4067H178.863V40.3436H179.272L179.945 41.4067H180.408L179.702 40.3154Z" fill="#B8182C"/>
<path d="M100.2 23.4824C96.3332 23.4824 93.1985 26.6168 93.1985 30.4836C93.1985 34.35 96.3332 37.4847 100.2 37.4847C104.066 37.4847 107.201 34.35 107.201 30.4836C107.201 26.6168 104.066 23.4824 100.2 23.4824ZM104.516 30.4836C104.516 32.8672 102.583 34.7993 100.2 34.7993C97.8163 34.7993 95.8839 32.8672 95.8839 30.4836C95.8839 28.0999 97.8163 26.1679 100.2 26.1679C102.583 26.1679 104.516 28.0999 104.516 30.4836Z" fill="#B8182C"/>
<path d="M88.1568 36.7532C88.4217 37.1299 88.9416 37.3766 89.4726 37.3766C90.4184 37.3766 91.1845 36.6136 91.1933 35.6698L91.1948 24.7642C91.1948 24.1908 90.5964 23.5928 89.8589 23.5928C89.1209 23.5928 88.5225 24.1908 88.5225 24.9288V32.336L88.5201 32.3368C88.5205 32.3391 88.5225 32.3403 88.5225 32.3427C88.5225 32.3986 88.4777 32.4438 88.4217 32.4438C88.3864 32.4438 88.3603 32.4224 88.3424 32.3951L88.3397 32.3959L82.6432 24.3319L82.6412 24.3331C82.3303 23.8862 81.8144 23.5928 81.2287 23.5928C80.2833 23.5928 79.5171 24.3553 79.5084 25.2987L79.5068 36.0406C79.5068 36.7786 80.1048 37.3766 80.8428 37.3766C81.5804 37.3766 82.1788 36.7786 82.1788 36.0406V28.6195C82.1788 28.5636 82.224 28.5184 82.2795 28.5184C82.3144 28.5184 82.3402 28.539 82.3584 28.5655L88.1568 36.7532Z" fill="#B8182C"/>
<path d="M173.164 36.7532C173.429 37.1299 173.949 37.3766 174.48 37.3766C175.426 37.3766 176.192 36.6136 176.201 35.6698L176.202 24.7642C176.202 24.1908 175.604 23.5928 174.866 23.5928C174.128 23.5928 173.53 24.1908 173.53 24.9288V32.336L173.527 32.3368C173.527 32.3391 173.53 32.3403 173.53 32.3427C173.53 32.3986 173.485 32.4438 173.429 32.4438C173.394 32.4438 173.368 32.4224 173.35 32.3951L173.347 32.3959L167.65 24.3319L167.649 24.3331C167.338 23.8862 166.822 23.5928 166.236 23.5928C165.291 23.5928 164.524 24.3553 164.516 25.2987L164.514 36.0406C164.514 36.7786 165.112 37.3766 165.85 37.3766C166.588 37.3766 167.186 36.7786 167.186 36.0406V28.6195C167.186 28.5636 167.231 28.5184 167.287 28.5184C167.322 28.5184 167.348 28.539 167.366 28.5655L173.164 36.7532Z" fill="#B8182C"/>
<path d="M135.954 31.5652L135.949 31.5644C135.959 31.5006 135.969 31.4364 135.969 31.3697C135.969 30.6318 135.371 30.0338 134.633 30.0338H134.359H130.312H130.039C129.301 30.0338 128.703 30.6318 128.703 31.3697C128.703 32.1077 129.301 32.7057 130.039 32.7057H130.312H132.73C131.853 34.167 130.153 35.0295 128.366 34.7504C127.267 34.579 126.33 34.0076 125.68 33.2074C125.074 32.4611 124.718 31.5097 124.72 30.4838C124.72 29.4532 125.089 28.4186 125.834 27.593C127.431 25.8232 130.16 25.6828 131.93 27.2793L131.931 27.2781C132.491 27.7627 133.338 27.7012 133.822 27.1409C134.307 26.581 134.288 25.77 133.729 25.2854C130.857 22.6955 126.43 22.9232 123.84 25.7942C122.632 27.1338 122.037 28.8116 122.037 30.4838C122.036 32.1474 122.612 33.6896 123.596 34.8999H123.596V34.9003C124.65 36.1986 126.169 37.1261 127.952 37.4037C131.737 37.9942 135.287 35.432 135.932 31.6695C135.937 31.6497 135.941 31.6299 135.945 31.6101C135.947 31.5946 135.952 31.5803 135.954 31.5652Z" fill="#B8182C"/>
<path d="M111.883 29.2286H111.881C111.88 29.227 111.877 29.2179 111.877 29.1909V26.306C111.877 26.2707 111.883 26.2647 111.919 26.2647H115.894C116.928 26.2647 117.353 27.1685 117.353 27.7026C117.353 28.3173 116.855 29.2325 115.894 29.2325H111.919C111.893 29.2325 111.883 29.2286 111.883 29.2286ZM111.877 31.7336C111.877 31.6987 111.883 31.6928 111.918 31.6928H114.892C114.945 31.6928 114.963 31.7059 114.99 31.7578L117.223 36.5997C117.532 37.2699 118.326 37.5629 118.996 37.254C119.666 36.9451 119.959 36.1516 119.65 35.4814L117.805 31.481L117.825 31.4675C119.332 30.6946 120.033 29.5082 120.033 27.7332C120.033 25.334 118.195 23.5928 115.87 23.5928H110.522C109.771 23.5928 109.205 24.1896 109.205 24.9815V36.0406C109.205 36.7782 109.803 37.3766 110.541 37.3766C111.279 37.3766 111.877 36.7782 111.877 36.0406V31.7336Z" fill="#B8182C"/>
<path d="M141.319 29.2286H141.318C141.317 29.227 141.313 29.2179 141.313 29.1909V26.306C141.313 26.2707 141.319 26.2647 141.355 26.2647H145.33C146.364 26.2647 146.79 27.1685 146.79 27.7026C146.79 28.3173 146.291 29.2325 145.33 29.2325H141.355C141.329 29.2325 141.319 29.2286 141.319 29.2286ZM141.313 31.7336C141.313 31.6987 141.319 31.6928 141.354 31.6928H144.328C144.381 31.6928 144.399 31.7059 144.426 31.7578L146.66 36.5997C146.969 37.2699 147.762 37.5629 148.432 37.254C149.102 36.9451 149.395 36.1516 149.087 35.4814L147.241 31.481L147.262 31.4675C148.768 30.6946 149.47 29.5082 149.47 27.7332C149.47 25.334 147.631 23.5928 145.306 23.5928H139.958C139.207 23.5928 138.641 24.1896 138.641 24.9815V36.0406C138.641 36.7782 139.239 37.3766 139.977 37.3766C140.715 37.3766 141.313 36.7782 141.313 36.0406V31.7336Z" fill="#B8182C"/>
<path d="M160.506 31.7154C161.244 31.7154 161.842 31.1174 161.842 30.3794C161.842 29.6414 161.244 29.0434 160.506 29.0434H154.814V26.2647H160.506C161.244 26.2647 161.842 25.6667 161.842 24.9288C161.842 24.1908 161.244 23.5928 160.506 23.5928H153.478C152.924 23.5928 152.45 23.9291 152.247 24.4089C152.179 24.5687 152.142 24.7444 152.142 24.9288V36.0406C152.142 36.7786 152.74 37.3766 153.478 37.3766H160.506C161.244 37.3766 161.842 36.7786 161.842 36.0406C161.842 35.303 161.244 34.7046 160.506 34.7046H154.814V31.7154H160.506Z" fill="#B8182C"/>
<path d="M70.3614 40.1715C70.3614 41.1878 71.185 42.0115 72.2014 42.0115C73.2177 42.0115 74.0414 41.1878 74.0414 40.1715C74.0414 39.1551 73.2177 38.3315 72.2014 38.3315C71.185 38.3315 70.3614 39.1551 70.3614 40.1715ZM72.2014 37.9702C73.4196 37.9702 74.4074 38.958 74.4074 40.1762C74.4074 41.3944 73.4196 42.3823 72.2014 42.3823C70.9832 42.3823 69.9954 41.3944 69.9954 40.1762C69.9954 38.958 70.9832 37.9702 72.2014 37.9702Z" fill="#B8182C"/>
<path d="M72.3901 40.0188C72.3778 40.0204 72.366 40.02 72.3533 40.0212C72.3465 40.0219 72.3406 40.0235 72.3338 40.0243C72.3215 40.0251 72.3069 40.0247 72.2946 40.0255C72.2613 40.0279 72.228 40.0327 72.1954 40.0327H72.088H71.6863V39.2467H72.088H72.1954C72.228 39.2467 72.2613 39.2514 72.2946 39.2538C72.3069 39.2546 72.3215 39.2542 72.3338 39.2554C72.3406 39.2558 72.3465 39.2574 72.3533 39.2582C72.366 39.2598 72.3778 39.259 72.3901 39.261C72.3969 39.2618 72.4016 39.2653 72.408 39.2661C72.4552 39.2744 72.5004 39.2859 72.54 39.3034C72.5444 39.3054 72.5472 39.3082 72.5511 39.3101C72.5555 39.3121 72.5615 39.3125 72.5658 39.3145C72.6166 39.3411 72.6578 39.3787 72.6899 39.4279C72.7221 39.4767 72.7383 39.5429 72.7383 39.6254C72.7383 39.6309 72.7367 39.6345 72.7367 39.6397C72.7367 39.6448 72.7383 39.6488 72.7383 39.6539C72.7383 39.7368 72.7221 39.8027 72.6899 39.8518C72.6578 39.9006 72.6166 39.9383 72.5658 39.9648C72.5615 39.9672 72.5555 39.9672 72.5511 39.9692C72.5472 39.9712 72.5444 39.9744 72.54 39.9763C72.5004 39.9934 72.4552 40.0049 72.408 40.0132C72.4016 40.0144 72.3969 40.0176 72.3901 40.0188ZM72.525 40.3154C72.7098 40.2968 72.8117 40.2353 72.9358 40.1318C73.0603 40.0279 73.1226 39.8649 73.1226 39.6424C73.1226 39.4049 73.052 39.228 72.9104 39.1111C72.7692 38.9945 72.5515 38.9358 72.2573 38.9358H71.302V41.4067H71.6863V40.3436H72.0955L72.7685 41.4067H73.2316L72.525 40.3154Z" fill="#B8182C"/>
</svg>
