<svg width="20" height="20" viewBox="0 0 20 20" fill="none" xmlns="http://www.w3.org/2000/svg">
<path d="M7.02662 5.3923C7.1995 5.22064 7.24803 4.96033 7.14961 4.73831L5.21434 0.348365C5.09822 0.0857613 4.80983 -0.0538563 4.52953 0.0193858L1.078 1.04706C0.700341 1.14213 0.389062 1.37955 0.200921 1.71433C-0.0171262 2.10282 -0.0600033 2.59201 0.0835816 3.05603C2.34295 10.3937 9.24052 17.5455 16.9422 19.9153C17.8126 20.1861 18.7309 19.7949 18.9523 18.9219L19.9795 15.4814C20.0538 15.2034 19.9148 14.9121 19.6516 14.7954L15.2635 12.8906C15.042 12.791 14.7782 12.8409 14.6066 13.0159C13.7545 13.8862 13.1178 14.5207 12.9032 14.713V14.7124C10.6275 13.2222 6.8188 9.42367 5.28651 7.09625C5.55888 6.80847 6.5449 5.86899 7.02662 5.3923Z" fill="white"/>
</svg>
