<svg width="57" height="56" viewBox="0 0 57 56" fill="none" xmlns="http://www.w3.org/2000/svg">
<path d="M51.5938 4H17.75C16.9737 4 16.3438 4.63 16.3438 5.40625V26.5938H19.1562V6.8125H50.1875V37.8438H30.4062V40.6562H51.5938C52.37 40.6562 53 40.0262 53 39.25V5.40625C53 4.63 52.37 4 51.5938 4Z" fill="#EF7E30"/>
<path d="M30.4062 37.8438V28C30.4062 27.2237 29.7762 26.5938 29 26.5938H19.1562V37.8438H30.4062Z" fill="#FEB671"/>
<path d="M16.3438 39.25V26.5938H6.40625C5.63 26.5938 5 27.2237 5 28V50.5938C5 51.37 5.63 52 6.40625 52H29C29.7763 52 30.4062 51.37 30.4062 50.5938V40.6562H17.75C16.9738 40.6562 16.3438 40.0262 16.3438 39.25Z" fill="#FEB671"/>
<path d="M45.8748 9.71864C43.9999 9.71864 42.1249 9.71864 40.25 9.71864C39.4734 9.71864 38.8438 10.3483 38.8438 11.1249C38.8438 11.9015 39.4734 12.5311 40.25 12.5311H42.4801L33.6306 21.3806C33.0815 21.9298 33.0815 22.8201 33.6306 23.3693C33.9052 23.644 34.2651 23.7812 34.625 23.7812C34.985 23.7812 35.3449 23.644 35.6194 23.3693L44.4688 14.52V16.75C44.4688 17.5266 45.0984 18.1562 45.875 18.1562C46.6517 18.1562 47.2813 17.5266 47.2813 16.75V11.125C47.2812 11.1236 47.2812 11.1223 47.2811 11.1209C47.2846 11.0386 47.298 10.509 46.8753 10.0979C46.4667 9.70036 45.9598 9.7148 45.8748 9.71864Z" fill="#EF7E30"/>
</svg>
