<svg width="124" height="28" viewBox="0 0 124 28" fill="none" xmlns="http://www.w3.org/2000/svg">
<path fill-rule="evenodd" clip-rule="evenodd" d="M35.8074 23.0072H31.932V0.0774901H35.8074V23.0072ZM16.8072 8.35608C16.8072 7.81346 16.4343 7.51805 16.0062 7.51805C15.5802 7.51805 15.1977 7.80495 15.1977 8.35608V19.3994C15.1977 19.9497 15.58 20.2374 16.0062 20.2374C16.4345 20.2374 16.8072 19.9369 16.8072 19.3994V15.7804H20.6789V19.1162C20.6789 21.8222 18.5509 23.2325 15.9883 23.2325C13.5373 23.2325 11.3253 21.8675 11.3253 19.1162V8.63693C11.3253 5.89151 13.5375 4.52259 15.9883 4.52259C18.5077 4.52259 20.6789 5.93404 20.6789 8.63693V11.6241H16.8072V8.35608ZM25.4975 8.85334C25.4975 8.3024 25.8787 8.0155 26.3049 8.0155C26.7326 8.0155 27.1072 8.31261 27.1072 8.85334V23.0091H30.9824V7.84237C30.9824 5.37082 29.3807 4.51937 28.1582 4.51937C26.7925 4.51937 25.8329 5.50652 25.5681 6.00775H25.5054V0.0774901H21.6301V23.0091H25.4973V8.85334H25.4975ZM42.2353 19.0694C42.2353 19.6088 41.8609 19.9078 41.433 19.9078C41.0081 19.9078 40.6256 19.6203 40.6256 19.0694V4.73578H36.7522V19.9562C36.7522 21.9743 38.144 23.2327 39.6375 23.2327C41.1508 23.2327 41.9722 22.1357 42.2047 21.7339H42.292L42.3614 23.0091H46.1089V4.73578H42.2355V19.0694H42.2353ZM50.9272 23.0091H47.0535V4.73578H50.8902L50.9289 6.0104H51.0064C51.2907 5.44963 52.2124 4.51937 53.6093 4.51937C55.056 4.51937 55.986 5.63372 56.1847 6.28936H56.2395C56.5286 5.62276 57.5428 4.51937 59.0102 4.51937C60.4927 4.51937 61.9133 5.52504 61.9133 8.01229V23.0091H58.0382V8.67246C58.0382 8.1202 57.6591 7.83274 57.2323 7.83274C56.8042 7.83274 56.4266 8.12928 56.4266 8.67246V23.0091H52.5336V8.67908C52.5336 8.12663 52.1476 7.83935 51.7216 7.83935C51.2935 7.83935 50.9271 8.13703 50.9271 8.67908V23.0091H50.9272ZM69.2911 4.51937C67.9945 4.51805 67.0616 5.61633 66.8174 6.01682H66.7347V0.0774901H62.86V23.0091H66.6914L66.7347 21.7339H66.8174C67.0112 22.226 67.8426 23.2255 69.2637 23.2274C70.904 23.2294 72.2378 21.8159 72.2378 19.6783V7.84237C72.2378 5.78681 70.8471 4.51937 69.2911 4.51937ZM68.3497 19.0756C68.3497 19.6171 67.9751 19.9144 67.5453 19.9144C67.1197 19.9144 66.7365 19.6256 66.7365 19.0756V8.68437C66.7365 8.13325 67.1197 7.84634 67.5453 7.84634C67.9749 7.84634 68.3497 8.14477 68.3497 8.68437V19.0756ZM77.0577 19.4082C77.0577 19.9592 77.4419 20.2468 77.8683 20.2468C78.2947 20.2468 78.6687 19.9497 78.6687 19.4082V15.7804H82.5415V19.1132C82.5415 21.8688 80.2739 23.2327 77.852 23.2327C75.3992 23.2327 73.1788 21.8688 73.1788 19.1132V8.64336C73.1788 5.89662 75.3958 4.52259 77.8488 4.52259C80.3661 4.52259 82.5413 5.92761 82.5413 8.64336V14.5477H77.0573V19.4082H77.0577ZM78.6689 11.7611V8.35929C78.6689 7.81875 78.2949 7.52145 77.8685 7.52145C77.4421 7.52145 77.0579 7.80684 77.0579 8.35929L77.0612 11.7611H78.6689ZM88.1799 7.84237C87.7555 7.84237 87.3691 8.12928 87.3691 8.6821V23.0091H83.4918V4.73578H87.2915L87.3659 6.00775H87.4517C87.8174 5.49991 88.7528 4.51937 90.0473 4.51937C91.5477 4.51937 92.8573 5.73634 92.8573 7.66925V14.5284H88.98V8.56076C88.98 8.12361 88.5621 7.84237 88.1713 7.84237H88.1799ZM107.969 19.4082C107.969 19.9592 108.355 20.2468 108.78 20.2468C109.208 20.2468 109.581 19.9497 109.581 19.4082V15.7804H113.454V19.1132C113.454 21.8688 111.182 23.2327 108.764 23.2327C106.311 23.2327 104.094 21.8688 104.094 19.1132V8.64336C104.094 5.89662 106.308 4.52259 108.761 4.52259C111.277 4.52259 113.454 5.92761 113.454 8.64336V14.5477H107.969V19.4082ZM109.581 11.7611V8.35929C109.581 7.81875 109.208 7.52145 108.78 7.52145C108.355 7.52145 107.969 7.80684 107.969 8.35929L107.973 11.7611H109.581ZM119.08 7.84237C118.65 7.84237 118.268 8.12928 118.268 8.6821V23.0091H114.389V4.73578H118.187L118.265 6.00775H118.349C118.715 5.49991 119.652 4.51937 120.947 4.51937C122.448 4.51937 123.758 5.73634 123.758 7.66925V14.5284H119.878V8.56076C119.878 8.12361 119.46 7.84237 119.07 7.84237H119.08ZM99.2807 17.9308C99.2807 18.4702 98.9091 18.7675 98.4797 18.7675C98.0545 18.7675 97.671 18.482 97.671 17.9308V8.68739C97.671 8.13835 98.0545 7.85277 98.4797 7.85277C98.9091 7.85277 99.2807 8.14742 99.2807 8.68739V17.9308ZM99.2807 24.3476C99.2807 24.8883 98.907 25.1841 98.4797 25.1841C98.0545 25.1841 97.671 24.8966 97.671 24.3476V22.8656H93.8019V23.8728C93.8019 26.7292 95.7717 28 98.4669 28C101.14 28 103.157 26.7292 103.157 23.8728V4.73578H99.3387L99.2807 6.01682H99.1869C98.9847 5.59819 98.0777 4.51937 96.6326 4.51937C95.2351 4.51937 93.8018 5.59308 93.8018 7.57758V18.491C93.8018 20.581 95.1437 21.8012 96.6553 21.8012C98.0921 21.8012 98.9284 20.8405 99.1662 20.46H99.2805V24.3476H99.2807ZM4.36156 19.1132C4.36156 19.6655 4.74561 19.9529 5.17218 19.9529C5.59951 19.9529 5.97146 19.6538 5.97146 19.1132V16.9463C5.97146 15.2172 5.60121 14.5891 4.31733 13.3825C3.22302 12.3529 2.67076 11.8231 1.96371 11.1565C1.05916 10.3011 0.015687 9.10981 0.015687 6.88377V4.13703C0.014553 1.12209 2.52353 0 5.16689 0C7.80193 0 10.2903 1.14666 10.2903 4.11567V7.65696H5.97127V4.22094C5.97127 3.67964 5.59819 3.38235 5.17029 3.38235C4.74391 3.38235 4.36156 3.67038 4.36156 4.22094V5.87072C4.36156 7.29975 4.80892 7.92818 5.99358 9.05935C6.47005 9.5154 7.54848 10.5645 8.37857 11.374C9.86279 12.828 10.3759 14.1395 10.3759 15.9431V19.0129C10.3759 22.2047 7.80684 23.3255 5.16689 23.3255C2.49291 23.3256 0 22.2047 0 19.1648V14.7675H4.36156V19.1132Z" fill="#003366"/>
</svg>
