<svg width="220" height="60" viewBox="0 0 220 60" fill="none" xmlns="http://www.w3.org/2000/svg">
<path fill-rule="evenodd" clip-rule="evenodd" d="M83.8074 39.0072H79.932V16.0775H83.8074V39.0072ZM64.8072 24.3561C64.8072 23.8135 64.4343 23.518 64.0062 23.518C63.5802 23.518 63.1977 23.805 63.1977 24.3561V35.3994C63.1977 35.9497 63.58 36.2374 64.0062 36.2374C64.4345 36.2374 64.8072 35.9369 64.8072 35.3994V31.7804H68.6789V35.1162C68.6789 37.8222 66.5509 39.2325 63.9883 39.2325C61.5373 39.2325 59.3253 37.8675 59.3253 35.1162V24.6369C59.3253 21.8915 61.5375 20.5226 63.9883 20.5226C66.5077 20.5226 68.6789 21.934 68.6789 24.6369V27.6241H64.8072V24.3561ZM73.4975 24.8533C73.4975 24.3024 73.8787 24.0155 74.3049 24.0155C74.7326 24.0155 75.1072 24.3126 75.1072 24.8533V39.0091H78.9824V23.8424C78.9824 21.3708 77.3807 20.5194 76.1582 20.5194C74.7925 20.5194 73.8329 21.5065 73.5681 22.0077H73.5054V16.0775H69.6301V39.0091H73.4973V24.8533H73.4975ZM90.2353 35.0694C90.2353 35.6088 89.8609 35.9078 89.433 35.9078C89.0081 35.9078 88.6256 35.6203 88.6256 35.0694V20.7358H84.7522V35.9562C84.7522 37.9743 86.144 39.2327 87.6375 39.2327C89.1508 39.2327 89.9722 38.1357 90.2047 37.7339H90.292L90.3614 39.0091H94.1089V20.7358H90.2355V35.0694H90.2353ZM98.9272 39.0091H95.0535V20.7358H98.8902L98.9289 22.0104H99.0064C99.2907 21.4496 100.212 20.5194 101.609 20.5194C103.056 20.5194 103.986 21.6337 104.185 22.2894H104.239C104.529 21.6228 105.543 20.5194 107.01 20.5194C108.493 20.5194 109.913 21.525 109.913 24.0123V39.0091H106.038V24.6725C106.038 24.1202 105.659 23.8327 105.232 23.8327C104.804 23.8327 104.427 24.1293 104.427 24.6725V39.0091H100.534V24.6791C100.534 24.1266 100.148 23.8393 99.7216 23.8393C99.2935 23.8393 98.9271 24.137 98.9271 24.6791V39.0091H98.9272ZM117.291 20.5194C115.995 20.518 115.062 21.6163 114.817 22.0168H114.735V16.0775H110.86V39.0091H114.691L114.735 37.7339H114.817C115.011 38.226 115.843 39.2255 117.264 39.2274C118.904 39.2294 120.238 37.8159 120.238 35.6783V23.8424C120.238 21.7868 118.847 20.5194 117.291 20.5194ZM116.35 35.0756C116.35 35.6171 115.975 35.9144 115.545 35.9144C115.12 35.9144 114.737 35.6256 114.737 35.0756V24.6844C114.737 24.1332 115.12 23.8463 115.545 23.8463C115.975 23.8463 116.35 24.1448 116.35 24.6844V35.0756ZM125.058 35.4082C125.058 35.9592 125.442 36.2468 125.868 36.2468C126.295 36.2468 126.669 35.9497 126.669 35.4082V31.7804H130.542V35.1132C130.542 37.8688 128.274 39.2327 125.852 39.2327C123.399 39.2327 121.179 37.8688 121.179 35.1132V24.6434C121.179 21.8966 123.396 20.5226 125.849 20.5226C128.366 20.5226 130.541 21.9276 130.541 24.6434V30.5477H125.057V35.4082H125.058ZM126.669 27.7611V24.3593C126.669 23.8187 126.295 23.5215 125.868 23.5215C125.442 23.5215 125.058 23.8068 125.058 24.3593L125.061 27.7611H126.669ZM136.18 23.8424C135.755 23.8424 135.369 24.1293 135.369 24.6821V39.0091H131.492V20.7358H135.291L135.366 22.0077H135.452C135.817 21.4999 136.753 20.5194 138.047 20.5194C139.548 20.5194 140.857 21.7363 140.857 23.6692V30.5284H136.98V24.5608C136.98 24.1236 136.562 23.8424 136.171 23.8424H136.18ZM155.969 35.4082C155.969 35.9592 156.355 36.2468 156.78 36.2468C157.208 36.2468 157.581 35.9497 157.581 35.4082V31.7804H161.454V35.1132C161.454 37.8688 159.182 39.2327 156.764 39.2327C154.311 39.2327 152.094 37.8688 152.094 35.1132V24.6434C152.094 21.8966 154.308 20.5226 156.761 20.5226C159.277 20.5226 161.454 21.9276 161.454 24.6434V30.5477H155.969V35.4082ZM157.581 27.7611V24.3593C157.581 23.8187 157.208 23.5215 156.78 23.5215C156.355 23.5215 155.969 23.8068 155.969 24.3593L155.973 27.7611H157.581ZM167.08 23.8424C166.65 23.8424 166.268 24.1293 166.268 24.6821V39.0091H162.389V20.7358H166.187L166.265 22.0077H166.349C166.715 21.4999 167.652 20.5194 168.947 20.5194C170.448 20.5194 171.758 21.7363 171.758 23.6692V30.5284H167.878V24.5608C167.878 24.1236 167.46 23.8424 167.07 23.8424H167.08ZM147.281 33.9308C147.281 34.4702 146.909 34.7675 146.48 34.7675C146.054 34.7675 145.671 34.482 145.671 33.9308V24.6874C145.671 24.1383 146.054 23.8528 146.48 23.8528C146.909 23.8528 147.281 24.1474 147.281 24.6874V33.9308ZM147.281 40.3476C147.281 40.8883 146.907 41.1841 146.48 41.1841C146.054 41.1841 145.671 40.8966 145.671 40.3476V38.8656H141.802V39.8728C141.802 42.7292 143.772 44 146.467 44C149.14 44 151.157 42.7292 151.157 39.8728V20.7358H147.339L147.281 22.0168H147.187C146.985 21.5982 146.078 20.5194 144.633 20.5194C143.235 20.5194 141.802 21.5931 141.802 23.5776V34.491C141.802 36.581 143.144 37.8012 144.655 37.8012C146.092 37.8012 146.928 36.8405 147.166 36.46H147.281V40.3476H147.281ZM52.3616 35.1132C52.3616 35.6655 52.7456 35.9529 53.1722 35.9529C53.5995 35.9529 53.9715 35.6538 53.9715 35.1132V32.9463C53.9715 31.2172 53.6012 30.5891 52.3173 29.3825C51.223 28.3529 50.6708 27.8231 49.9637 27.1565C49.0592 26.3011 48.0157 25.1098 48.0157 22.8838V20.137C48.0146 17.1221 50.5235 16 53.1669 16C55.8019 16 58.2903 17.1467 58.2903 20.1157V23.657H53.9713V20.2209C53.9713 19.6796 53.5982 19.3823 53.1703 19.3823C52.7439 19.3823 52.3616 19.6704 52.3616 20.2209V21.8707C52.3616 23.2998 52.8089 23.9282 53.9936 25.0593C54.47 25.5154 55.5485 26.5645 56.3786 27.374C57.8628 28.828 58.3759 30.1395 58.3759 31.9431V35.0129C58.3759 38.2047 55.8068 39.3255 53.1669 39.3255C50.4929 39.3256 48 38.2047 48 35.1648V30.7675H52.3616V35.1132Z" fill="#003366"/>
</svg>
