<svg width="40" height="40" viewBox="0 0 40 40" fill="none" xmlns="http://www.w3.org/2000/svg">
<path d="M16.5156 27.5088C23.5915 27.5088 27.461 21.6466 27.461 16.5634C27.461 16.3969 27.4575 16.2311 27.4501 16.0663C28.2011 15.5232 28.8539 14.8455 29.369 14.0742C28.6797 14.3807 27.9378 14.5867 27.1598 14.68C27.954 14.2035 28.5638 13.4502 28.8514 12.5521C28.1081 12.9928 27.2849 13.3129 26.4087 13.4858C25.7067 12.7381 24.7072 12.2705 23.6005 12.2705C21.4763 12.2705 19.7534 13.9932 19.7534 16.1168C19.7534 16.4188 19.7873 16.7124 19.8532 16.994C16.656 16.8331 13.8208 15.3025 11.9237 12.9748C11.5934 13.5432 11.4029 14.2036 11.4029 14.9084C11.4029 16.2428 12.082 17.4212 13.1147 18.1104C12.4836 18.091 11.8908 17.9177 11.3725 17.6294C11.3719 17.6455 11.3719 17.6612 11.3719 17.6784C11.3719 19.5415 12.6979 21.097 14.4583 21.4495C14.135 21.5375 13.7948 21.5848 13.4439 21.5848C13.1964 21.5848 12.9552 21.5605 12.7208 21.5155C13.2105 23.0439 14.6308 24.1562 16.3145 24.1874C14.9978 25.2194 13.3392 25.8341 11.5366 25.8341C11.2265 25.8341 10.92 25.8163 10.6189 25.7808C12.3214 26.872 14.3431 27.5089 16.5158 27.5089" fill="white"/>
<rect x="0.5" y="0.5" width="39" height="39" rx="19.5" stroke="white"/>
</svg>
